<svg width="130" height="98" viewBox="0 0 130 98" fill="none" xmlns="http://www.w3.org/2000/svg">
<g id="Group 19">
<path id="Intersect" fill-rule="evenodd" clip-rule="evenodd" d="M53.8508 11.8399C53.4409 12.1439 53.0413 12.4643 52.653 12.801L46.0078 24.3107C45.9104 24.8153 45.8327 25.3216 45.7744 25.8286L53.8508 11.8399ZM45.7579 30.3116C45.7232 29.988 45.6962 29.6634 45.677 29.338L56.8413 10.0009C57.1327 9.85478 57.4273 9.71581 57.7249 9.58406L45.7579 30.3116ZM46.4009 33.6521C46.3295 33.3974 46.263 33.1414 46.2015 32.884L60.1745 8.68201C60.4281 8.60663 60.6831 8.53618 60.9394 8.4707L46.4009 33.6521ZM47.3874 36.3979C47.2932 36.1849 47.2027 35.9704 47.1159 35.7545L63.1176 8.03873C63.348 8.00594 63.579 7.97707 63.8105 7.95216L47.3874 36.3979ZM48.6088 38.7367C48.4978 38.5541 48.3898 38.37 48.2848 38.1843L65.8063 7.83612C66.0196 7.83422 66.2331 7.83567 66.4467 7.84051L48.6088 38.7367ZM50.0132 40.7586C49.8885 40.6006 49.7664 40.4409 49.6468 40.2797L68.302 7.96793C68.5014 7.99088 68.7008 8.01683 68.8999 8.04579L50.0132 40.7586ZM51.5718 42.5134C51.4352 42.3766 51.3009 42.2381 51.1687 42.0979L70.6376 8.37687C70.825 8.42119 71.0122 8.46827 71.199 8.51813L51.5718 42.5134ZM53.2674 44.0308C53.1201 43.9132 52.9747 43.7938 52.8313 43.6726L72.8326 9.02934C73.0092 9.09293 73.1853 9.15912 73.3609 9.22792L53.2674 44.0308ZM55.0899 45.3286C54.9324 45.2289 54.7767 45.1274 54.6228 45.0241L74.8987 9.90508C75.0652 9.98669 75.2309 10.0708 75.396 10.1574L55.0899 45.3286ZM57.0336 46.4163C56.8672 46.3347 56.7015 46.2505 56.5364 46.1639L76.8427 10.9924C77.0002 11.092 77.156 11.1935 77.3099 11.2968L57.0336 46.4163ZM59.0995 47.2925C58.9229 47.2289 58.7468 47.1627 58.5713 47.0938L78.6654 12.2897C78.8128 12.4073 78.9582 12.5267 79.1016 12.6478L59.0995 47.2925ZM61.2942 47.9455C61.1068 47.9011 60.9197 47.854 60.7329 47.8041L80.3614 13.8066C80.498 13.9434 80.6323 14.0819 80.7645 14.222L61.2942 47.9455ZM63.6295 48.355C63.4301 48.332 63.2308 48.306 63.0316 48.277L81.9202 15.5609C82.045 15.7189 82.1671 15.8785 82.2867 16.0397L63.6295 48.355ZM66.1248 48.4874C65.9115 48.4893 65.6981 48.4877 65.4845 48.4828L83.325 17.5822C83.436 17.7647 83.544 17.9488 83.6491 18.1344L66.1248 48.4874ZM68.813 48.2856C68.5827 48.3183 68.3518 48.3471 68.1202 48.3719L84.5468 19.9203C84.641 20.1332 84.7316 20.3476 84.8184 20.5634L68.813 48.2856ZM71.7555 47.6434C71.502 47.7187 71.247 47.789 70.9908 47.8544L85.5339 22.665C85.6054 22.9196 85.6719 23.1756 85.7335 23.4328L71.7555 47.6434ZM75.0876 46.3264C74.7963 46.4723 74.5018 46.6111 74.2044 46.7426L86.1779 26.004C86.2126 26.3273 86.2397 26.6518 86.259 26.977L75.0876 46.3264ZM79.2728 43.5319C78.8849 43.8677 78.4857 44.1873 78.0763 44.4906L86.1635 30.4832C86.1056 30.9894 86.0283 31.4949 85.9315 31.9987L79.2728 43.5319Z" fill="#D0D0D0"/>
<g id="Vector">
<path d="M120.694 38.2272C120.768 38.4642 120.742 38.7213 120.622 38.9384L116.255 46.7996C115.974 47.3052 115.246 47.3005 114.971 46.7915C114.803 46.4797 114.436 46.333 114.099 46.4432L112.722 46.8943C112.266 47.0436 111.773 46.8113 111.597 46.3646L111.167 45.2705C110.991 44.821 110.492 44.589 110.034 44.7434L107.025 45.7584C106.521 45.9285 105.979 45.6291 105.855 45.1114L104.715 40.3613C104.599 39.8779 104.115 39.5782 103.631 39.6899L100.927 40.3131C100.473 40.4178 100.013 40.1607 99.865 39.7189L99.5498 38.7808C99.4031 38.3445 98.9526 38.0874 98.5024 38.1833L94.7212 38.9881C94.2052 39.0979 93.7049 38.7453 93.6347 38.2224L93.3392 36.0188C93.3133 35.8255 93.3504 35.6289 93.4451 35.4584L101.148 21.5913C101.391 21.1539 101.942 20.9963 102.38 21.2393L117.788 29.7985C117.991 29.9112 118.143 30.0976 118.213 30.3192L120.694 38.2272Z" fill="black" fill-opacity="0.04"/>
<path d="M114.303 49.3958C114.45 49.6676 114.448 49.9954 114.298 50.2654L107.344 62.7878C107.101 63.2252 106.55 63.3829 106.112 63.1399L85.4481 51.6622C85.0107 51.4193 84.8531 50.8677 85.0961 50.4303L90.9796 39.8395C91.3792 39.1201 92.4648 39.3252 92.5744 40.1408C92.6407 40.6341 93.1128 40.9667 93.5996 40.8632L97.4367 40.0473C97.8871 39.9515 98.3377 40.2089 98.4841 40.6454L98.7981 41.5821C98.9462 42.0241 99.4056 42.2814 99.8599 42.1771L102.565 41.5555C103.049 41.4442 103.533 41.7439 103.649 42.2273L104.787 46.9769C104.911 47.4946 105.453 47.7942 105.957 47.6242L108.969 46.6094C109.426 46.4552 109.925 46.6872 110.101 47.1367L110.53 48.2288C110.705 48.6752 111.198 48.9076 111.654 48.7588L112.896 48.3538C113.312 48.2179 113.766 48.3996 113.974 48.7852L114.303 49.3958Z" fill="black" fill-opacity="0.04"/>
</g>
<g id="freepik--Shadow--inject-6">
<path id="Vector_2" d="M65 97.9038C100.899 97.9038 130 94.7604 130 90.8828C130 87.0053 100.899 83.8619 65 83.8619C29.1015 83.8619 0 87.0053 0 90.8828C0 94.7604 29.1015 97.9038 65 97.9038Z" fill="url(#paint0_linear_205_746)" fill-opacity="0.5"/>
</g>
<g id="freepik--Plant--inject-5">
<g id="Vector_3">
<path d="M13.5966 51.9338C14.5357 52.0015 15.4515 52.2578 16.2894 52.6872C17.1273 53.1166 17.87 53.7105 18.4734 54.4333C19.673 55.8874 20.5225 57.5977 20.9562 59.4322C21.8949 62.9426 21.3172 67.0917 20.3175 70.5854C16.5182 69.2246 14.1687 65.1699 13.0967 63.037C11.4304 59.6711 10.4362 52.5614 13.58 51.9282" fill="#FF725E"/>
<path d="M13.5966 51.9338C14.5357 52.0015 15.4515 52.2578 16.2894 52.6872C17.1273 53.1166 17.87 53.7105 18.4734 54.4333C19.673 55.8874 20.5225 57.5977 20.9562 59.4322C21.8949 62.9426 21.3172 67.0917 20.3175 70.5854C16.5182 69.2246 14.1687 65.1699 13.0967 63.037C11.4304 59.6711 10.4362 52.5614 13.58 51.9282" fill="url(#paint1_linear_205_746)"/>
</g>
<path id="Vector_4" d="M25.7881 74.8459C25.2176 73.9611 24.8914 72.9411 24.8426 71.8895C24.7938 70.8378 25.0242 69.792 25.5104 68.8583C26.0118 67.9333 26.6924 67.1175 27.5126 66.4585C28.3327 65.7996 29.2759 65.3106 30.2872 65.0202C31.2147 64.7313 32.2923 64.6147 33.0977 65.1535C33.4607 65.428 33.7435 65.795 33.9164 66.2161C34.0893 66.6372 34.1461 67.0969 34.0808 67.5474C33.935 68.4499 33.5516 69.2972 32.9699 70.0025C31.1203 72.5075 28.8763 74.5904 25.7492 74.8459" fill="#FF725E"/>
<path id="Vector_5" d="M26.2085 86.582C26.126 86.3461 26.0683 86.1023 26.0363 85.8544C25.9363 85.3323 25.803 84.6602 25.6419 83.8548C25.1433 81.6495 25.0045 79.3781 25.2309 77.1285C25.4928 74.8679 26.3538 72.7183 27.7248 70.902C28.1437 70.3589 28.6267 69.8684 29.1634 69.4412C29.3092 69.3255 29.4613 69.218 29.6189 69.119C29.669 69.0774 29.7252 69.0437 29.7855 69.019C29.0829 69.6193 28.4411 70.2872 27.8692 71.0131C26.5705 72.8312 25.7527 74.9483 25.4919 77.1673C25.1365 79.7557 25.5753 82.1274 25.8308 83.8326C25.9641 84.6824 26.0751 85.3712 26.1362 85.8489C26.18 86.0909 26.2042 86.3361 26.2085 86.582Z" fill="#263238"/>
<path id="Vector_6" d="M14.8191 57.2849C14.8825 57.3725 14.9348 57.4677 14.9746 57.5682C15.0746 57.7904 15.2079 58.0681 15.3634 58.418C15.7022 59.1567 16.1744 60.2287 16.7465 61.5562C17.8907 64.2168 19.4237 67.916 21.0234 72.0374C22.623 76.1588 23.9839 79.9191 24.9114 82.6574C25.3891 84.0238 25.7613 85.1347 26.0223 85.9067C26.139 86.2733 26.2278 86.5677 26.3 86.7954C26.3397 86.8975 26.3676 87.0037 26.3833 87.112C26.327 87.0178 26.2823 86.9171 26.25 86.8121C26.1667 86.5899 26.0612 86.3011 25.9223 85.9401L24.7504 82.7185C23.7561 80.0024 22.3675 76.2476 20.7734 72.1318C19.1793 68.016 17.6685 64.3057 16.5687 61.6285C16.0133 60.3121 15.5856 59.2401 15.269 58.4569C15.1246 58.1014 15.0079 57.8181 14.9191 57.5904C14.8773 57.4915 14.8439 57.3893 14.8191 57.2849Z" fill="#263238"/>
<g id="Vector_7">
<path d="M21.6944 78.8137C20.5514 76.9109 18.9721 75.3074 17.0868 74.1359C15.2014 72.9643 13.0644 72.2583 10.8522 72.0762C9.74129 71.9985 8.37491 72.1873 7.87502 73.1871C7.37512 74.1869 8.04165 75.4089 8.80815 76.2198C10.4367 77.9235 12.5332 79.1069 14.8334 79.6209C17.1335 80.1349 19.5344 79.9565 21.7332 79.1081" fill="#FF725E"/>
<path d="M21.6944 78.8137C20.5514 76.9109 18.9721 75.3074 17.0868 74.1359C15.2014 72.9643 13.0644 72.2583 10.8522 72.0762C9.74129 71.9985 8.37491 72.1873 7.87502 73.1871C7.37512 74.1869 8.04165 75.4089 8.80815 76.2198C10.4367 77.9235 12.5332 79.1069 14.8334 79.6209C17.1335 80.1349 19.5344 79.9565 21.7332 79.1081" fill="url(#paint2_linear_205_746)"/>
</g>
<path id="Vector_8" d="M12.5615 75.0904C12.797 75.0787 13.0331 75.088 13.267 75.1182C13.5408 75.1329 13.8135 75.1645 14.0834 75.2126C14.4001 75.2737 14.7722 75.307 15.161 75.4181C15.5956 75.5101 16.0241 75.6288 16.4441 75.7736C16.9306 75.9299 17.4073 76.1154 17.8715 76.329C18.9394 76.8074 19.9493 77.4055 20.882 78.112C21.804 78.8352 22.639 79.6627 23.3704 80.5781C23.6862 80.9766 23.9775 81.3939 24.2424 81.8279C24.4819 82.2026 24.7007 82.5901 24.8979 82.9887C25.0647 83.3133 25.2131 83.6472 25.3422 83.9885C25.4536 84.2413 25.5482 84.501 25.6255 84.7662C25.7078 84.9877 25.7691 85.2164 25.8088 85.4494C25.7477 85.4494 25.4811 84.494 24.7312 83.0721C24.527 82.6901 24.3027 82.3193 24.0591 81.9612C23.7885 81.5404 23.4955 81.1343 23.1816 80.7448C21.7288 78.9495 19.876 77.5191 17.7716 76.5679C17.2883 76.3568 16.8273 76.1568 16.3774 76.0124C15.9644 75.8619 15.5435 75.734 15.1166 75.6292C13.5613 75.2015 12.556 75.1515 12.5615 75.0904Z" fill="#263238"/>
</g>
<g id="freepik--Plant--inject-5_2">
<g id="Vector_9">
<path d="M116.943 66.8771C116.421 66.9148 115.912 67.0572 115.447 67.2959C114.981 67.5346 114.568 67.8646 114.233 68.2664C113.566 69.0746 113.094 70.0252 112.853 71.0448C112.331 72.996 112.652 75.3021 113.208 77.2439C115.319 76.4876 116.625 74.2339 117.221 73.0484C118.147 71.1776 118.7 67.226 116.953 66.874" fill="#FF725E"/>
<path d="M116.943 66.8771C116.421 66.9148 115.912 67.0572 115.447 67.2959C114.981 67.5346 114.568 67.8646 114.233 68.2664C113.566 69.0746 113.094 70.0252 112.853 71.0448C112.331 72.996 112.652 75.3021 113.208 77.2439C115.319 76.4876 116.625 74.2339 117.221 73.0484C118.147 71.1776 118.7 67.226 116.953 66.874" fill="url(#paint3_linear_205_746)"/>
</g>
<path id="Vector_10" d="M110.167 79.613C110.484 79.1212 110.666 78.5543 110.693 77.9698C110.72 77.3852 110.592 76.804 110.322 76.285C110.043 75.7709 109.665 75.3174 109.209 74.9512C108.753 74.5849 108.229 74.3131 107.667 74.1517C107.151 73.9912 106.552 73.9263 106.104 74.2258C105.903 74.3784 105.745 74.5824 105.649 74.8164C105.553 75.0505 105.522 75.306 105.558 75.5564C105.639 76.058 105.852 76.529 106.175 76.9209C107.203 78.3133 108.451 79.471 110.189 79.613" fill="#FF725E"/>
<path id="Vector_11" d="M109.933 86.1369C109.979 86.0058 110.011 85.8703 110.029 85.7325C110.085 85.4423 110.159 85.0688 110.248 84.6211C110.525 83.3954 110.603 82.1329 110.477 80.8825C110.331 79.626 109.853 78.4313 109.091 77.4217C108.858 77.1199 108.589 76.8472 108.291 76.6098C108.21 76.5455 108.126 76.4858 108.038 76.4308C108.01 76.4076 107.979 76.3889 107.945 76.3752C108.336 76.7088 108.693 77.08 109.01 77.4835C109.732 78.494 110.187 79.6707 110.332 80.9041C110.529 82.3428 110.285 83.661 110.143 84.6088C110.069 85.0811 110.008 85.4639 109.974 85.7294C109.949 85.864 109.936 86.0002 109.933 86.1369Z" fill="#263238"/>
<path id="Vector_12" d="M116.263 69.85C116.228 69.8987 116.199 69.9516 116.177 70.0075C116.121 70.131 116.047 70.2853 115.961 70.4798C115.772 70.8904 115.51 71.4863 115.192 72.2241C114.556 73.7029 113.704 75.759 112.815 78.0497C111.926 80.3404 111.169 82.4304 110.654 83.9524C110.388 84.7118 110.181 85.3293 110.036 85.7584C109.971 85.9622 109.922 86.1258 109.882 86.2523C109.86 86.3091 109.844 86.3681 109.836 86.4283C109.867 86.3759 109.892 86.32 109.91 86.2616C109.956 86.1381 110.015 85.9776 110.092 85.7769L110.743 83.9863C111.296 82.4767 112.068 80.3898 112.954 78.1021C113.84 75.8145 114.679 73.7523 115.291 72.2642C115.599 71.5326 115.837 70.9367 116.013 70.5014C116.093 70.3039 116.158 70.1464 116.208 70.0198C116.231 69.9649 116.249 69.9081 116.263 69.85Z" fill="#263238"/>
<g id="Vector_13">
<path d="M112.442 81.8213C113.077 80.7637 113.955 79.8725 115.003 79.2213C116.051 78.5702 117.239 78.1778 118.468 78.0766C119.086 78.0333 119.845 78.1383 120.123 78.694C120.401 79.2497 120.03 79.9289 119.604 80.3796C118.699 81.3265 117.534 81.9843 116.255 82.27C114.977 82.5557 113.643 82.4565 112.42 81.985" fill="#FF725E"/>
<path d="M112.442 81.8213C113.077 80.7637 113.955 79.8725 115.003 79.2213C116.051 78.5702 117.239 78.1778 118.468 78.0766C119.086 78.0333 119.845 78.1383 120.123 78.694C120.401 79.2497 120.03 79.9289 119.604 80.3796C118.699 81.3265 117.534 81.9843 116.255 82.27C114.977 82.5557 113.643 82.4565 112.42 81.985" fill="url(#paint4_linear_205_746)"/>
</g>
<path id="Vector_14" d="M117.516 79.7469C117.385 79.7404 117.254 79.7456 117.124 79.7624C116.972 79.7706 116.821 79.7881 116.67 79.8148C116.494 79.8488 116.288 79.8673 116.072 79.9291C115.83 79.9802 115.592 80.0462 115.358 80.1266C115.088 80.2135 114.823 80.3166 114.565 80.4354C113.971 80.7012 113.41 81.0337 112.892 81.4264C112.379 81.8283 111.915 82.2883 111.509 82.7971C111.333 83.0185 111.171 83.2505 111.024 83.4917C110.891 83.7 110.769 83.9154 110.66 84.1369C110.567 84.3173 110.484 84.5029 110.413 84.6926C110.351 84.8331 110.298 84.9775 110.255 85.1248C110.21 85.2479 110.175 85.3751 110.153 85.5046C110.187 85.5046 110.336 84.9736 110.752 84.1832C110.866 83.9709 110.99 83.7648 111.126 83.5658C111.276 83.3319 111.439 83.1062 111.614 82.8897C112.421 81.8919 113.451 81.0968 114.621 80.5681C114.889 80.4508 115.145 80.3397 115.395 80.2594C115.625 80.1758 115.859 80.1046 116.096 80.0464C116.961 79.8087 117.519 79.7809 117.516 79.7469Z" fill="#263238"/>
</g>
<path id="Union" d="M25.3662 25.431C25.3662 22.9294 27.3942 20.9014 29.8958 20.9014H58.2705C59.3095 20.9014 60.2985 21.3474 60.9863 22.126L64.8245 26.4711C65.5123 27.2498 66.5013 27.6958 67.5403 27.6958H93.3105C95.8121 27.6958 97.8401 29.7238 97.8401 32.2254V44.6819H37.1432V84.5425C37.1432 87.7946 34.5068 90.431 31.2547 90.431C28.0026 90.431 25.3662 87.7946 25.3662 84.5425V25.431Z" fill="url(#paint5_linear_205_746)"/>
<rect id="Rectangle 128" x="43.937" y="46.2701" width="9.05923" height="9.05923" rx="0.905923" fill="#D9D9D9"/>
<path id="Rectangle 129" d="M40.7668 34.0408C40.7668 32.915 41.6794 32.0024 42.8052 32.0024H93.5369C94.4125 32.0024 95.1223 32.7122 95.1223 33.5878V40.6087H40.7668V34.0408Z" fill="white"/>
<path id="Subtract" d="M31.2549 90.4335H98.2932C101.295 90.4335 103.729 87.9999 103.729 84.9979V44.2314C103.729 42.23 102.106 40.6077 100.105 40.6077H40.7671C38.7657 40.6077 37.1434 42.23 37.1434 44.2314V84.5449C37.1434 87.7971 34.507 90.4335 31.2549 90.4335Z" fill="url(#paint6_linear_205_746)"/>
<g id="Rectangle 126">
<rect x="42.5796" y="45.3636" width="13.5889" height="13.5889" rx="2.71777" fill="#D9D9D9"/>
<rect x="42.5796" y="45.3636" width="13.5889" height="13.5889" rx="2.71777" fill="url(#paint7_linear_205_746)"/>
<rect x="42.5796" y="45.3636" width="13.5889" height="13.5889" rx="2.71777" fill="url(#paint8_linear_205_746)"/>
</g>
<path id="Vector_15" d="M20.4748 32.3543C20.6711 31.9216 20.4793 31.4116 20.0465 31.2156L19.0576 30.7676C18.6255 30.5718 18.1165 30.7629 17.9201 31.1947C17.8676 31.3064 17.7856 31.4016 17.6831 31.4702C17.5805 31.5389 17.4613 31.5783 17.338 31.5842C17.1976 31.5888 17.0577 31.6025 16.919 31.625C16.7973 31.6431 16.673 31.6278 16.5593 31.5807C16.4456 31.5336 16.3469 31.4566 16.2735 31.3578C15.9972 30.9714 15.4598 30.8825 15.0738 31.1593L14.1916 31.7918C13.8053 32.0688 13.7164 32.6063 13.9929 32.9929C14.0625 33.094 14.1035 33.2119 14.1114 33.3343C14.1194 33.4568 14.0941 33.5791 14.0382 33.6882C13.9736 33.8128 13.9154 33.9405 13.8638 34.071C13.8189 34.186 13.7436 34.2867 13.6458 34.3621C13.548 34.4375 13.4316 34.4848 13.3089 34.499C12.8374 34.5453 12.4926 34.9651 12.5389 35.4367L12.6449 36.5168C12.6914 36.9907 13.1137 37.3368 13.5875 37.2893C13.7106 37.2795 13.834 37.3034 13.9446 37.3584C14.0551 37.4135 14.1485 37.4976 14.2148 37.6018C14.2511 37.6607 14.2896 37.7173 14.3303 37.774C14.3711 37.8306 14.4119 37.8849 14.4549 37.9393C14.5331 38.0344 14.5833 38.1493 14.6001 38.2712C14.6169 38.3932 14.5996 38.5174 14.55 38.6301C14.3524 39.0653 14.5452 39.5783 14.9805 39.7757L15.9636 40.2215C16.3973 40.4182 16.9084 40.2258 17.1047 39.7919C17.1577 39.6803 17.2401 39.5853 17.3431 39.5171C17.446 39.4488 17.5657 39.41 17.6891 39.4046C17.8279 39.3989 17.9662 39.3853 18.1035 39.3639C18.2252 39.3458 18.3495 39.3611 18.4632 39.4082C18.5769 39.4552 18.6757 39.5323 18.749 39.6311C19.0254 40.0175 19.5627 40.1066 19.949 39.8299L20.833 39.1968C21.2193 38.92 21.3084 38.3825 21.0319 37.9959C20.9601 37.8958 20.9179 37.7776 20.9099 37.6547C20.9019 37.5318 20.9284 37.4092 20.9866 37.3006C21.0497 37.1768 21.1064 37.0498 21.1565 36.9201C21.2 36.8042 21.275 36.7028 21.373 36.6272C21.4711 36.5516 21.5882 36.5048 21.7113 36.4921C22.1856 36.4445 22.5317 36.0218 22.4848 35.5475L22.3783 34.4718C22.3314 33.9976 21.9093 33.651 21.435 33.6973C21.3127 33.708 21.1898 33.6848 21.0799 33.63C20.97 33.5752 20.8773 33.4911 20.8122 33.387C20.7737 33.3281 20.7352 33.2715 20.6945 33.2149C20.6537 33.1583 20.6129 33.1017 20.5699 33.0496C20.4923 32.9533 20.4424 32.8377 20.4256 32.7152C20.4088 32.5926 20.4258 32.4679 20.4748 32.3543ZM19.3809 34.1548C19.6457 34.5244 19.795 34.9642 19.8099 35.4187C19.8247 35.8731 19.7045 36.3217 19.4644 36.7078C19.2242 37.0939 18.875 37.4002 18.4608 37.5878C18.0466 37.7754 17.5861 37.8359 17.1375 37.7618C16.6889 37.6877 16.2724 37.4822 15.9406 37.1713C15.6088 36.8604 15.3766 36.4581 15.2735 36.0153C15.1703 35.5725 15.2008 35.109 15.3611 34.6835C15.5214 34.258 15.8042 33.8896 16.1739 33.6248C16.6695 33.2699 17.2857 33.1264 17.8871 33.2258C18.4885 33.3252 19.0258 33.6593 19.3809 34.1548Z" fill="black" fill-opacity="0.12"/>
<path id="Vector_16" d="M19.5039 22.1406C19.3493 21.9505 19.0715 21.9179 18.877 22.0669L18.0225 22.7218C17.825 22.8731 17.7865 23.1553 17.9362 23.3539L18.0259 23.473C18.0797 23.5411 18.1127 23.6231 18.1211 23.7095C18.1296 23.7958 18.113 23.8827 18.0735 23.9599C18.0302 24.048 17.9923 24.1388 17.9603 24.2317C17.9324 24.3135 17.8822 24.3858 17.8153 24.4407C17.7485 24.4955 17.6677 24.5306 17.582 24.5419L17.434 24.561C17.1856 24.593 17.0103 24.8204 17.0426 25.0687L17.1794 26.1203C17.2117 26.3682 17.4386 26.5431 17.6865 26.5112L17.8357 26.4919C17.9227 26.4798 18.0114 26.4925 18.0916 26.5286C18.1717 26.5646 18.24 26.6226 18.2887 26.6958C18.3432 26.7746 18.4022 26.8502 18.4653 26.9223C18.5237 26.9864 18.5624 27.066 18.5768 27.1515C18.5913 27.237 18.5809 27.3249 18.5469 27.4047L18.4895 27.5457C18.3959 27.7761 18.5055 28.0389 18.7351 28.1344L19.7105 28.5405C19.9429 28.6372 20.2095 28.526 20.3042 28.2929L20.3587 28.1588C20.3924 28.0789 20.4478 28.01 20.5187 27.96C20.5895 27.91 20.673 27.8808 20.7596 27.8757L20.9045 27.8599L21.0472 27.8372C21.131 27.8214 21.2176 27.8289 21.2974 27.8589C21.3773 27.8888 21.4474 27.9401 21.5002 28.0071L21.5939 28.1295C21.746 28.3283 22.0304 28.366 22.2291 28.2138L23.071 27.5686C23.2693 27.4167 23.3071 27.1329 23.1556 26.9343L23.0651 26.8158C23.0125 26.7468 22.9801 26.6644 22.9717 26.578C22.9633 26.4916 22.9792 26.4045 23.0176 26.3266C23.0605 26.239 23.0983 26.1491 23.1308 26.0571C23.1587 25.9753 23.2089 25.9029 23.2758 25.8481C23.3426 25.7933 23.4234 25.7582 23.509 25.7468L23.6571 25.7278C23.9055 25.6958 24.0808 25.4684 24.0485 25.2201L23.9117 24.1684C23.8794 23.9206 23.6525 23.7457 23.4046 23.7776L23.2554 23.7968C23.1686 23.8092 23.08 23.7968 22.9999 23.7612C22.9198 23.7255 22.8514 23.668 22.8024 23.5953C22.7458 23.5137 22.6869 23.4367 22.6235 23.3688C22.5707 23.3032 22.5366 23.2247 22.5246 23.1414C22.5127 23.0581 22.5234 22.9732 22.5556 22.8954L22.6129 22.7544C22.7065 22.524 22.5969 22.2612 22.3673 22.1657L21.3919 21.7596C21.1596 21.6629 20.893 21.7741 20.7982 22.0072L20.7437 22.1412C20.7096 22.2209 20.654 22.2895 20.5833 22.3394C20.5125 22.3894 20.4293 22.4188 20.3428 22.4244L20.1979 22.4379L20.0988 22.4413C20.0758 22.4421 20.053 22.445 20.0301 22.4476C19.9571 22.4558 19.8831 22.4467 19.8141 22.4208C19.7342 22.3909 19.6641 22.3396 19.6113 22.2726L19.5039 22.1406ZM20.3428 23.55C20.6583 23.5094 20.9788 23.5632 21.2637 23.7045C21.5487 23.8459 21.7854 24.0684 21.944 24.3442C22.1026 24.6199 22.176 24.9364 22.1549 25.2538C22.1338 25.5712 22.0192 25.8752 21.8256 26.1275C21.6319 26.3798 21.3678 26.5692 21.0667 26.6716C20.7656 26.774 20.4409 26.785 20.1335 26.7031C19.8261 26.6212 19.5499 26.4501 19.3397 26.2114C19.1295 25.9727 18.9947 25.677 18.9522 25.3618C18.9239 25.1514 18.9375 24.9376 18.9922 24.7324C19.0468 24.5273 19.1415 24.3351 19.2707 24.1667C19.4 23.9983 19.5612 23.8571 19.7452 23.7513C19.9292 23.6454 20.1323 23.577 20.3428 23.55Z" fill="black" fill-opacity="0.12"/>
<path id="Vector_17" d="M93.3389 16.7019C93.1843 16.5118 92.9065 16.4791 92.712 16.6282L91.8574 17.2831C91.66 17.4344 91.6215 17.7165 91.7712 17.9152L91.8609 18.0342C91.9146 18.1023 91.9477 18.1844 91.9561 18.2707C91.9645 18.357 91.948 18.444 91.9085 18.5212C91.8651 18.6093 91.8273 18.7001 91.7952 18.7929C91.7673 18.8747 91.7171 18.9471 91.6503 19.0019C91.5835 19.0568 91.5027 19.0918 91.417 19.1032L91.2689 19.1223C91.0206 19.1543 90.8453 19.3817 90.8776 19.63L91.0144 20.6816C91.0466 20.9295 91.2735 21.1044 91.5214 21.0724L91.6707 21.0532C91.7577 21.0411 91.8464 21.0538 91.9265 21.0899C92.0067 21.1259 92.075 21.1839 92.1236 21.2571C92.1782 21.3358 92.2371 21.4115 92.3003 21.4835C92.3586 21.5477 92.3973 21.6273 92.4118 21.7128C92.4262 21.7983 92.4158 21.8862 92.3818 21.9659L92.3245 22.107C92.2308 22.3373 92.3404 22.6001 92.57 22.6957L93.5455 23.1017C93.7778 23.1984 94.0444 23.0873 94.1392 22.8541L94.1937 22.7201C94.2274 22.6402 94.2828 22.5713 94.3536 22.5213C94.4245 22.4712 94.5079 22.4421 94.5945 22.437L94.7395 22.4212L94.8822 22.3985C94.966 22.3827 95.0525 22.3902 95.1324 22.4202C95.2122 22.4501 95.2824 22.5014 95.3351 22.5684L95.4288 22.6908C95.5809 22.8896 95.8654 22.9273 96.0641 22.7751L96.906 22.1299C97.1042 21.978 97.1421 21.6942 96.9905 21.4956L96.9001 21.3771C96.8474 21.3081 96.8151 21.2257 96.8067 21.1393C96.7983 21.0528 96.8142 20.9658 96.8525 20.8879C96.8955 20.8003 96.9333 20.7103 96.9658 20.6184C96.9937 20.5366 97.0439 20.4642 97.1107 20.4094C97.1775 20.3546 97.2583 20.3195 97.344 20.3081L97.4921 20.289C97.7404 20.257 97.9157 20.0296 97.8834 19.7814L97.7466 18.7297C97.7144 18.4819 97.4875 18.307 97.2396 18.3389L97.0903 18.3581C97.0035 18.3705 96.915 18.3581 96.8349 18.3225C96.7548 18.2868 96.6863 18.2293 96.6374 18.1565C96.5808 18.075 96.5219 17.998 96.4585 17.9301C96.4057 17.8645 96.3716 17.786 96.3596 17.7027C96.3477 17.6194 96.3583 17.5344 96.3905 17.4567L96.4478 17.3157C96.5415 17.0853 96.4319 16.8225 96.2023 16.7269L95.2268 16.3209C94.9945 16.2242 94.7279 16.3354 94.6332 16.5685L94.5787 16.7025C94.5445 16.7821 94.489 16.8508 94.4182 16.9007C94.3475 16.9507 94.2643 16.9801 94.1778 16.9856L94.0329 16.9992L93.9338 17.0026C93.9108 17.0034 93.8879 17.0063 93.865 17.0089C93.7921 17.0171 93.7181 17.008 93.649 16.9821C93.5692 16.9522 93.499 16.9009 93.4463 16.8339L93.3389 16.7019ZM94.1778 18.1112C94.4933 18.0707 94.8137 18.1245 95.0987 18.2658C95.3836 18.4072 95.6203 18.6297 95.7789 18.9054C95.9375 19.1812 96.0109 19.4977 95.9899 19.8151C95.9688 20.1324 95.8542 20.4365 95.6605 20.6888C95.4669 20.9411 95.2028 21.1304 94.9017 21.2329C94.6005 21.3353 94.2758 21.3463 93.9685 21.2644C93.6611 21.1824 93.3849 21.0114 93.1747 20.7726C92.9644 20.5339 92.8296 20.2383 92.7872 19.9231C92.7589 19.7127 92.7725 19.4988 92.8271 19.2937C92.8818 19.0886 92.9765 18.8963 93.1057 18.728C93.2349 18.5596 93.3962 18.4184 93.5802 18.3126C93.7642 18.2067 93.9673 18.1383 94.1778 18.1112Z" fill="black" fill-opacity="0.12"/>
<g id="Group 18">
<path id="Intersect_2" d="M103.725 56.0494C101.408 55.1473 98.8873 54.6525 96.2511 54.6525C84.8687 54.6525 75.6414 63.8798 75.6414 75.2622C75.6414 81.2657 78.2083 86.6696 82.3045 90.4364H98.2894C101.291 90.4364 103.725 88.0029 103.725 85.0009V56.0494Z" fill="black" fill-opacity="0.1"/>
<circle id="Ellipse 1" cx="96.2501" cy="75.2584" r="17.439" fill="white"/>
<circle id="Ellipse 2" cx="96.2514" cy="75.2597" r="15.1742" fill="#541DE7"/>
<g id="Group">
<path id="Vector_18" d="M103.747 80.3345C104.313 80.9033 104.302 81.8251 103.723 82.3805C103.159 82.9226 102.264 82.9122 101.712 82.3571L89.4531 70.0234C88.8878 69.4547 88.8985 68.5329 89.4769 67.9774C90.0414 67.4353 90.9362 67.4458 91.488 68.0008L103.747 80.3345Z" fill="white"/>
<path id="Vector_19" d="M101.758 68.2099C102.33 67.6605 103.236 67.6711 103.795 68.2337C104.368 68.8099 104.357 69.7436 103.771 70.3064L91.4466 82.1453C90.8745 82.6948 89.9676 82.6845 89.4082 82.1221C88.8349 81.5456 88.8456 80.611 89.432 80.0478L101.758 68.2099Z" fill="white"/>
</g>
</g>
</g>
<defs>
<linearGradient id="paint0_linear_205_746" x1="65" y1="83.8619" x2="65" y2="97.9038" gradientUnits="userSpaceOnUse">
<stop stop-color="#5304D6" stop-opacity="0.64"/>
<stop offset="1" stop-color="#B413FF" stop-opacity="0.4"/>
</linearGradient>
<linearGradient id="paint1_linear_205_746" x1="21.4316" y1="55.753" x2="11.3646" y2="55.9765" gradientUnits="userSpaceOnUse">
<stop offset="0.0601646" stop-color="#FE4B4B"/>
<stop offset="1" stop-color="#FFAD80"/>
</linearGradient>
<linearGradient id="paint2_linear_205_746" x1="21.7332" y1="73.6694" x2="7.54061" y2="74.7313" gradientUnits="userSpaceOnUse">
<stop offset="0.0601646" stop-color="#FE4B4B"/>
<stop offset="1" stop-color="#FFAD80"/>
</linearGradient>
<linearGradient id="paint3_linear_205_746" x1="112.589" y1="68.9999" x2="118.184" y2="69.1241" gradientUnits="userSpaceOnUse">
<stop offset="0.0601646" stop-color="#FE4B4B"/>
<stop offset="1" stop-color="#FFAD80"/>
</linearGradient>
<linearGradient id="paint4_linear_205_746" x1="112.42" y1="78.962" x2="120.309" y2="79.5523" gradientUnits="userSpaceOnUse">
<stop offset="0.0601646" stop-color="#FE4B4B"/>
<stop offset="1" stop-color="#FFAD80"/>
</linearGradient>
<linearGradient id="paint5_linear_205_746" x1="61.6031" y1="20.9014" x2="61.6031" y2="90.431" gradientUnits="userSpaceOnUse">
<stop stop-color="#6720FF"/>
<stop offset="1" stop-color="#0D069D" stop-opacity="0.94"/>
</linearGradient>
<linearGradient id="paint6_linear_205_746" x1="67.4918" y1="40.6077" x2="67.4918" y2="90.4335" gradientUnits="userSpaceOnUse">
<stop stop-color="#DE80FF"/>
<stop offset="1" stop-color="#900BF9" stop-opacity="0.94"/>
</linearGradient>
<linearGradient id="paint7_linear_205_746" x1="49.374" y1="45.3636" x2="49.374" y2="58.9525" gradientUnits="userSpaceOnUse">
<stop stop-color="#2B20FF"/>
<stop offset="1" stop-color="#0D069D" stop-opacity="0.94"/>
</linearGradient>
<linearGradient id="paint8_linear_205_746" x1="49.374" y1="45.3636" x2="49.374" y2="58.9525" gradientUnits="userSpaceOnUse">
<stop stop-color="#6720FF"/>
<stop offset="1" stop-color="#0D069D" stop-opacity="0.94"/>
</linearGradient>
</defs>
</svg>
